<?xml version="1.0" encoding="utf-8"?>
<!-- Generator: Adobe Illustrator 27.5.0, SVG Export Plug-In . SVG Version: 6.00 Build 0)  -->
<svg version="1.1" id="BASE" xmlns="http://www.w3.org/2000/svg" xmlns:xlink="http://www.w3.org/1999/xlink" x="0px" y="0px"
	 viewBox="0 0 1975 2279" style="enable-background:new 0 0 1975 2279;" xml:space="preserve">
<g>
	<path style="fill:#D0C9AD;" d="M1797.196,1544.531L1460.61,292.022l-0.102-0.465c-4.362-19.898-29.7-26.078-42.733-10.422
		l-37.725,24.548l-82.601-7.957l-30.52-2.94l-117.827-11.35v-0.001l-28.31-2.727l-95.72-9.22l-26.301-2.534v0.001l-96.434-9.289
		l-17.855-1.72l0,0l-76.078-7.328v-0.001l-25.661-2.471l-10.751-1.035l-13.649-73.398c-0.074-0.921-0.204-1.833-0.387-2.733
		c-1.442-7.096-6.293-13.393-14.348-16.935c-8.788-3.864-18.48-2.279-25.402,3.313c-1.039,0.835-2.019,1.757-2.924,2.766
		L445.654,462.73L207.041,730.498c-28.199,31.652-36.909,76.157-22.783,116.093L227.8,969.696L613.98,2061.635
		c3.678,2.223,7.747,4.612,12.192,7.113c22.176,12.486,53.803,27.785,93.516,39.534c26.983,7.989,57.695,14.34,91.71,17.052
		c17.129,1.366,33.547,1.685,49.15,1.215c62.745-1.878,112.359-16.58,142.045-27.469c0,0,7.753-5.098,21.721-14.233
		c8.668-5.693,19.988-13.142,33.541-22.082c90.752-59.761,276.796-182.903,432.188-289.832
		C1655.945,1659.353,1799.871,1556.758,1797.196,1544.531z"/>
	<g>
		<path style="fill:#AEA992;" d="M622.506,439.03L319.12,800.438c7.111,2.292,14.495,4.521,22.149,6.656l285.386-339.966
			L779.13,285.491l29.274-34.873v-0.001l-25.661-2.471l-8.643,10.296L622.506,439.03z"/>
		<path style="fill:#AEA992;" d="M713.085,457.26L400.822,820.384c2.333,0.393,4.68,0.776,7.046,1.145
			c6.026,0.94,11.973,1.77,17.836,2.5l328.32-381.794l44.609-51.875l111.725-129.922l-8.019-0.772l-17.855-1.72l0,0L793.65,363.573
			L713.085,457.26z"/>
		<path style="fill:#AEA992;" d="M565.135,824.557l181.988-168.635h-0.002l173.115-160.413l15.276-14.154l0,0l213.59-197.919v-0.001
			l-28.31-2.727L530.656,827.546C543.066,826.841,554.591,825.788,565.135,824.557z"/>
		<path style="fill:#AEA992;" d="M524.28,827.874l500.792-556.385l-26.301-2.534v0.001L495.155,828.479
			C505.296,828.522,515.018,828.298,524.28,827.874z"/>
		<path style="fill:#AEA992;" d="M988.97,516.234c7.285,3.286,14.207,6.825,20.789,10.575
			c105.825-84.622,208.428-166.413,287.689-229.083l-30.52-2.94c-21.511,17.032-44.507,35.283-68.638,54.466
			C1134.262,400.155,1062.272,457.611,988.97,516.234z"/>
		<path style="fill:#AEA992;" d="M697.547,749.795l120.505-78.408c-5.49-2.041-10.869-3.822-16.087-5.375
			C765.706,695.088,730.602,723.259,697.547,749.795z"/>
		<path style="fill:#744412;" d="M1797.196,1544.531L1460.61,292.022l-0.123-0.458c-4.354-19.915-29.687-26.075-42.698-10.408
			l-37.702,24.531l-354.738,230.818c-0.003-0.002-0.004-0.003-0.006-0.005c-4.968-3.362-10.158-6.599-15.583-9.691
			c-6.581-3.75-13.504-7.289-20.789-10.575c-20.05-9.046-42.837-16.201-68.734-20.724L747.122,655.922h0.002
			c12.598,0.883,32.218,3.354,54.841,10.089c5.219,1.554,10.597,3.334,16.087,5.375l-120.505,78.408l-92.04,59.888
			c-8.019,3.877-19.277,8.975-33.404,14.02c-2.272,0.293-4.596,0.578-6.968,0.855c-10.544,1.231-22.07,2.284-34.48,2.989
			c-2.101,0.12-4.226,0.229-6.376,0.328c-9.262,0.424-18.984,0.648-29.125,0.605c-21.401-0.089-44.674-1.365-69.452-4.45
			c-5.863-0.73-11.809-1.56-17.836-2.5c-2.365-0.369-4.713-0.752-7.046-1.145c-21.32-3.596-41.206-8.172-59.553-13.29
			c-7.654-2.135-15.038-4.364-22.149-6.656c-24.245-7.813-45.294-16.351-62.847-24.349c-0.018-0.008-0.036-0.016-0.054-0.024
			l0.306-0.36l-0.288,0.359L386.526,622.71l2.151-2.532c26.407-31.077,52.812-62.155,79.228-93.241
			c11.006-12.96,22.014-25.919,33.022-38.878c0.48-0.564,0.959-1.129,1.438-1.693l108.308-127.48l53.73-63.242
			c1.02-1.202,2.041-2.403,3.063-3.605c14.402-16.946,28.805-33.892,43.209-50.837l17.464,1.682l4.179,0.402l39.675,3.822
			l-13.649-73.398c-0.074-0.921-0.204-1.833-0.387-2.733c-1.451-7.093-6.309-13.381-14.369-16.911
			c-8.776-3.88-18.436-2.294-25.381,3.288c-1.039,0.835-2.019,1.757-2.924,2.766L445.654,462.73L207.041,730.498
			c-28.199,31.652-36.909,76.157-22.783,116.093L227.8,969.696L614.005,2061.64c3.67,2.222,7.73,4.609,12.168,7.107
			c22.176,12.486,53.803,27.785,93.516,39.534c26.983,7.983,57.699,14.327,91.718,17.034c17.124,1.375,33.539,1.7,49.142,1.233
			c62.745-1.878,112.359-16.58,142.045-27.469c0,0,7.753-5.098,21.721-14.233c8.668-5.693,19.988-13.142,33.541-22.082
			c88.101-58.109,270.571-179.183,432.188-289.832C1655.945,1659.353,1799.871,1556.758,1797.196,1544.531z"/>
		<path style="fill:#452701;" d="M386.526,622.71l115.839-136.344l108.308-127.48l53.73-63.242l46.255-54.443h0.002l0.016,0.002
			l17.464,1.682l4.179,0.402l-4.701-22.016l-0.005-0.024l-2.002-9.372c-0.36-1.683-1.194-3.054-2.302-4.071
			c-3.085-2.838-8.296-2.903-11.303,0.84l-24.37,30.339l-14.128,17.589l-65.84,81.968L256.525,775.704l-0.288,0.359L386.526,622.71z
			"/>
		<path style="fill:#7F4A16;" d="M1024.315,730.498l-53.207,132.799c-9.859-48.712-27.46-86.019-48.801-114.591L732.315,870.24
			c-1.177,0.753-2.313,1.55-3.407,2.388c-6.378,4.88-11.316,11.132-14.599,18.117c-5.359,11.409-6.3,24.777-1.861,37.326
			l332.913,941.393c10.475,29.62,45.655,41.959,72.337,25.373l561.849-349.267c18.643-11.589,27.349-34.129,21.338-55.241
			l-280.479-985.07c-9.024-31.692-46.049-45.721-73.807-27.965l-239.989,153.516c26.131,52.539,28.695,99.687,28.695,99.687
			H1024.315z"/>
		<path style="fill:#60380B;" d="M1024.308,2084.827c-115.457-318.784-277.685-768.739-420.6-1171.848
			c-5.597-15.788-11.166-31.505-16.698-47.139c-2.511-7.091-5.014-14.164-7.509-21.219c-2.469-6.978-4.93-13.939-7.384-20.882
			c-0.004-0.012-0.008-0.025-0.013-0.037c-2.272,0.293-4.596,0.578-6.968,0.855c-10.544,1.231-22.07,2.284-34.48,2.989
			c-2.101,0.12-4.226,0.229-6.376,0.328c-9.262,0.424-18.984,0.648-29.125,0.605c-21.401-0.089-44.674-1.365-69.452-4.45
			c-5.863-0.73-11.809-1.56-17.836-2.5c-2.365-0.369-4.713-0.752-7.046-1.145c-21.32-3.596-41.206-8.172-59.553-13.29
			c-7.654-2.135-15.038-4.364-22.149-6.656c-24.245-7.813-45.294-16.351-62.847-24.349c-0.018-0.008-0.036-0.016-0.054-0.024
			c-15.541-10.521-30.301-25.018-39.522-34.812c-5.754-6.112-9.352-10.392-9.637-10.732c-0.012-0.015-0.018-0.023-0.018-0.023
			c-28.199,31.652-36.909,76.157-22.783,116.093L227.8,969.696L614.005,2061.64c3.67,2.222,7.73,4.609,12.168,7.107
			c22.176,12.486,53.803,27.785,93.516,39.534c26.983,7.983,57.699,14.327,91.718,17.034c17.124,1.375,33.539,1.7,49.142,1.233
			c62.745-1.878,112.359-16.58,142.045-27.469c0,0,7.753-5.098,21.721-14.233C1024.312,2084.84,1024.31,2084.834,1024.308,2084.827z
			"/>
		<path style="fill:#452701;" d="M501.551,1237.01c-1.604,0.331-3.184,0.756-4.741,1.285
			c-52.839,17.97-57.504,144.768-10.421,283.211c45.22,132.961,121.725,228.306,174.521,219.728
			c2.176-0.354,4.312-0.883,6.404-1.594c52.838-17.97,57.504-144.768,10.421-283.21
			C632.038,1322.065,554.392,1226.118,501.551,1237.01z"/>
		<path style="fill:#331B00;" d="M818.052,671.386c0,0,0,0,0.002,0c2.482,0.923,4.986,1.899,7.509,2.931
			c13.534,5.537,27.587,12.69,41.454,21.929c19.444,12.955,38.521,30.01,55.291,52.461c21.34,28.571,38.942,65.878,48.801,114.591
			l53.207-132.799h110.992c0,0-2.564-47.148-28.695-99.687c-11.82-23.764-28.46-48.63-51.866-70.736
			c-8.807-8.317-18.571-16.242-29.397-23.571c-0.003-0.002-0.004-0.003-0.006-0.005c-4.968-3.362-10.158-6.599-15.583-9.691
			c-6.581-3.75-13.504-7.289-20.789-10.575c-20.05-9.046-42.837-16.201-68.734-20.724L747.122,655.922h0.002
			c12.598,0.883,32.218,3.354,54.841,10.089C807.184,667.565,812.563,669.346,818.052,671.386z"/>
		<path style="fill:#452701;" d="M530.656,827.546c-2.101,0.12-4.226,0.229-6.376,0.328c-9.262,0.424-18.984,0.648-29.125,0.605
			c-21.401-0.089-44.674-1.365-69.452-4.45c-5.863-0.73-11.809-1.56-17.836-2.5c-2.365-0.369-4.713-0.752-7.046-1.145
			c-21.32-3.596-41.206-8.172-59.553-13.29c-7.654-2.135-15.038-4.364-22.149-6.656c-24.245-7.813-45.294-16.351-62.847-24.349
			c-0.018-0.008-0.036-0.016-0.054-0.024c6.92,5.198,16.825,12.224,29.509,19.786c0.27,0.161,0.541,0.322,0.812,0.483
			c0.284,0.169,0.571,0.338,0.857,0.506c7.15,4.208,15.15,8.562,23.961,12.844c6.312,3.068,13.041,6.096,20.174,9.009
			c16.503,6.736,35.169,12.844,55.846,17.326c7.813,1.694,15.913,3.155,24.292,4.331c5.525,0.776,11.17,1.428,16.937,1.94
			c18.978,1.698,36.944,1.67,53.707,0.458c11.255-0.815,21.966-2.162,32.076-3.884c1.689-0.288,3.363-0.586,5.019-0.893
			c16.057-2.984,30.508-6.875,43.104-10.981c3.327-1.085,6.527-2.184,9.592-3.286c-2.272,0.293-4.596,0.578-6.968,0.855
			C554.591,825.788,543.066,826.841,530.656,827.546z"/>
	</g>
</g>
</svg>
